PathFileType	4	(X/Y/Z)	C:\Users\Basilio\Documents\Thesis Gigler\squatting_fais\c3dfiles\041\SLS_pre_back2\markers_experimental.trc
DataRate	CameraRate	NumFrames	NumMarkers	Units	OrigDataRate	OrigDataStartFrame	OrigNumFrames
200.000000	200.000000	4	63	mm	200.000000	1607	1837
Frame#	Time	FHD			LBHD			RBHD			C7			T10			CLAV			LSHO			LUUPA			LMUPA			LDUPA			LLEP			LMEP			LRAD			LUL			LRFIN			RSHO			RUPA1			RMUPA			RDUPA			RLEP			RMEP			RRAD			RUL			RUFIN			LASI			RASI			USACR			LSACR			RSACR			LTHI1			LTHI2			LTHI3			LTHI4			LLFC			LMFC			LTIB1			LTIB2			LTIB3			LTIB4			LLMAL			LMMAL			LHEE			LMT1			LMT2			LMT5			RTHI			RTHI2			RTHI3			RTHI4			RLFC			RMFC			RTIB1			RTIB2			RTIB3			RTIB4			RLMAL			RMMAL			RHEE			RMT1			RMT2			RMT5			*61			*62			
		X1	Y1	Z1	X2	Y2	Z2	X3	Y3	Z3	X4	Y4	Z4	X5	Y5	Z5	X6	Y6	Z6	X7	Y7	Z7	X8	Y8	Z8	X9	Y9	Z9	X10	Y10	Z10	X11	Y11	Z11	X12	Y12	Z12	X13	Y13	Z13	X14	Y14	Z14	X15	Y15	Z15	X16	Y16	Z16	X17	Y17	Z17	X18	Y18	Z18	X19	Y19	Z19	X20	Y20	Z20	X21	Y21	Z21	X22	Y22	Z22	X23	Y23	Z23	X24	Y24	Z24	X25	Y25	Z25	X26	Y26	Z26	X27	Y27	Z27	X28	Y28	Z28	X29	Y29	Z29	X30	Y30	Z30	X31	Y31	Z31	X32	Y32	Z32	X33	Y33	Z33	X34	Y34	Z34	X35	Y35	Z35	X36	Y36	Z36	X37	Y37	Z37	X38	Y38	Z38	X39	Y39	Z39	X40	Y40	Z40	X41	Y41	Z41	X42	Y42	Z42	X43	Y43	Z43	X44	Y44	Z44	X45	Y45	Z45	X46	Y46	Z46	X47	Y47	Z47	X48	Y48	Z48	X49	Y49	Z49	X50	Y50	Z50	X51	Y51	Z51	X52	Y52	Z52	X53	Y53	Z53	X54	Y54	Z54	X55	Y55	Z55	X56	Y56	Z56	X57	Y57	Z57	X58	Y58	Z58	X59	Y59	Z59	X60	Y60	Z60	X61	Y61	Z61	X62	Y62	Z62	X63	Y63	Z63	

1608	8.035	-97.74715423583987	1770.063720703125	-1161.286499023438	-271.5346374511719	1687.480712890625	-1228.942260742188	-251.3614959716797	1705.285034179688	-1077.73486328125	-301.2872314453126	1559.965209960938	-1155.12109375	-338.6925659179688	1240.348876953125	-1113.348754882813	-141.7623748779297	1492.158081054688	-1151.814331054688	-231.3687286376954	1547.70703125	-1325.646240234375	-356.7323913574219	1391.3310546875	-1391.756591796875	-339.2798461914063	1345.283325195313	-1387.114135742188	-399.7798767089845	1336.406127929688	-1395.089965820313	-425.582489013672	1296.91650390625	-1392.07763671875	-438.6037597656251	1277.102294921875	-1308.36767578125	-523.2044067382814	1034.496215820313	-1367.126098632813	-562.4431152343751	1074.193237304688	-1418.888061523438	-572.3601074218751	970.2593994140627	-1372.677001953125	-211.270980834961	1563.812744140625	-981.470153808594	-367.1747741699219	1423.958618164063	-886.8738403320315	-332.4274291992188	1392.142822265625	-867.2246704101565	-381.3081970214844	1360.31103515625	-858.9581298828127	-396.5508422851564	1320.84033203125	-847.6524658203127	-416.0539550781251	1296.251953125	-929.806335449219	-491.402069091797	1069.439208984375	-832.813659667969	-529.8393554687501	1113.95947265625	-782.599792480469	-541.5961914062501	1003.661743164063	-816.0356445312502	-170.9182891845703	1039.361328125	-1194.279663085938	-193.7554321289063	1046.673706054688	-971.1992797851565	-352.6667480468751	1133.499755859375	-1101.684204101563	-367.7450256347657	1107.141723632813	-1128.300537109375	-374.2419128417969	1109.815185546875	-1074.100463867188	-291.8511962890626	834.5896606445315	-1252.775390625	-257.7295532226563	758.4425048828126	-1237.078735351563	-210.9509735107422	762.1431884765626	-1226.40185546875	-286.7814025878907	707.0295410156251	-1224.314697265625	-275.1698303222657	528.3243408203126	-1188.878173828125	-273.3287353515626	521.5004882812501	-1068.623046875	-274.3221740722657	340.1970214843751	-1113.341674804688	-323.3713989257813	297.6734313964844	-1174.400512695313	-288.0929565429688	291.4761962890626	-1146.104248046875	-303.6275939941407	219.246078491211	-1105.378784179688	-373.8070373535157	129.2326354980469	-1138.903076171875	-340.8217468261719	141.1960144042969	-1056.333984375	-443.5628051757814	113.7216339111328	-1097.398071289063	-240.5288238525391	63.6569290161133	-1052.059204101563	-229.8322906494141	54.49585723876955	-1095.0869140625	-272.8222656250001	38.86869430541993	-1153.760986328125	-321.6291809082032	794.4295654296877	-885.0086059570315	-284.4562377929688	739.3249511718751	-878.4072265625002	-252.3493957519532	739.0521240234376	-883.4991455078127	-316.2237243652344	660.6482543945314	-883.055847167969	-342.7464599609376	558.5377197265626	-886.297546386719	-318.8575134277344	518.7154541015626	-991.9949340820315	-453.8120422363282	437.2728271484376	-900.7545166015627	-562.5983886718751	465.6530151367189	-918.9717407226565	-540.4461059570314	426.1109008789064	-908.0585937500002	-561.9440307617189	376.7613525390626	-934.4362792968752	-692.4091796875001	355.5601501464844	-946.709655761719	-640.0825805664064	339.5764770507813	-1012.869506835938	-750.0612792968751	366.8070678710938	-1011.491516113281	-604.2518310546876	207.3440399169922	-979.498962402344	-612.8198852539064	206.8621673583985	-928.4063110351565	-670.2361450195314	222.0572204589844	-898.2893066406252	nan	nan	nan	-4216.822265625001	853.1738891601565	-3944.838867187501	
1609	8.040000000000001	-97.53022766113284	1770.09228515625	-1161.534301757813	-271.5500793457032	1687.58251953125	-1229.192016601563	-251.4142456054688	1705.401977539063	-1078.075317382813	-301.2391967773438	1560.180908203125	-1155.319580078125	-338.4340209960938	1240.416259765625	-1113.246215820313	-141.8955993652344	1492.446044921875	-1152.058227539063	-231.468734741211	1547.924560546875	-1325.741821289063	-357.7631835937501	1392.145141601563	-1391.351928710938	-340.3027648925782	1345.890014648438	-1386.974853515625	-400.8349609375001	1337.31005859375	-1394.608032226563	-426.6549072265626	1297.939086914063	-1391.511352539063	-439.4449462890626	1278.111328125	-1307.764770507813	-525.9010009765626	1036.082641601563	-1366.589965820313	-565.1843872070314	1076.193725585938	-1418.255981445313	-576.2467651367189	972.9292602539065	-1371.326538085938	-211.276596069336	1564.386352539063	-981.8106689453127	-368.3099670410157	1425.801391601563	-887.9963989257815	-333.4782409667969	1394.049560546875	-867.6108398437502	-383.2270507812501	1362.4091796875	-859.8115234375002	-398.6058044433595	1322.784301757813	-848.3076782226565	-417.2832031250001	1297.913208007813	-930.7431640625002	-494.7824707031251	1072.044677734375	-831.8557739257815	-533.5535278320314	1117.311401367188	-783.6574707031252	-546.1785278320314	1007.256530761719	-817.6916503906252	-170.7930450439453	1039.441528320313	-1194.35107421875	-193.374740600586	1046.7705078125	-971.1589965820315	-352.3976745605469	1133.533813476563	-1101.567749023438	-366.9034729003907	1106.96728515625	-1128.181518554688	-374.8518981933594	1110.341430664063	-1074.140991210938	-291.7557373046876	834.6744384765627	-1252.808837890625	-257.5654907226563	758.5609130859376	-1237.088623046875	-210.9262084960938	762.2117309570314	-1226.4091796875	-286.7695617675782	707.1671752929689	-1224.504272460938	-275.1972961425782	528.4074096679689	-1188.985961914063	-273.2268066406251	521.5142822265626	-1068.689697265625	-274.2259826660157	340.2054443359376	-1113.451049804688	-323.4234313964844	297.8257446289063	-1174.297485351563	-288.2017517089844	291.4535522460938	-1146.231567382813	-303.5343627929688	218.9624481201172	-1105.251708984375	-373.8066406250001	129.2708435058594	-1139.006713867188	-340.7279357910157	141.283935546875	-1056.471801757813	-443.5271301269532	113.750358581543	-1097.402465820313	-240.7452087402344	63.97403717041017	-1052.209228515625	-229.8574676513672	54.51601791381837	-1095.071533203125	-272.7981262207032	38.8499870300293	-1153.780151367188	-320.7584228515626	794.5013427734377	-884.9692382812502	-283.9843444824219	739.4382934570314	-878.1458129882815	-251.6813507080079	739.1372070312501	-883.666442871094	-315.4773254394532	660.7539672851564	-882.8134765625002	-342.3791503906251	558.6020507812501	-886.1290283203127	-318.1883544921876	518.7907714843751	-991.9634399414065	-453.3409118652345	437.2676391601564	-900.7767333984377	-562.0730590820314	465.6788330078126	-919.0124511718752	-539.7008056640626	426.0054016113282	-908.068542480469	-561.3523559570314	376.6658020019532	-934.2437133789065	-691.6895141601564	355.4688720703126	-946.7630004882815	-639.4355468750001	339.5795593261719	-1012.8642578125	-749.1762695312501	366.6454162597657	-1011.600524902344	-603.7260131835939	207.4345855712891	-979.5960083007815	-612.4382934570314	206.8099060058594	-928.445739746094	-669.8352050781251	222.1389465332032	-898.2989501953127	nan	nan	nan	-4217.013183593751	853.0889892578127	-3944.728271484376	
1610	8.045	-97.54550933837893	1770.082763671875	-1161.709594726563	-271.4001770019532	1687.711791992188	-1229.434692382813	-251.412582397461	1705.529174804688	-1078.248657226563	-301.2110900878907	1560.361083984375	-1155.456298828125	-338.1328125000001	1240.44091796875	-1113.151489257813	-142.0535583496094	1492.608032226563	-1152.175659179688	-231.631088256836	1548.091674804688	-1325.840942382813	-358.4674377441407	1392.77880859375	-1391.103637695313	-341.2905273437501	1346.578979492188	-1386.660034179688	-401.8793029785157	1338.239990234375	-1394.119140625	-427.6859130859376	1298.89892578125	-1390.9951171875	-440.0321655273439	1278.915771484375	-1307.232788085938	-529.0474853515626	1037.669799804688	-1365.6552734375	-567.5921630859376	1078.200805664063	-1417.933349609375	-580.0053100585939	975.2027587890627	-1369.836547851563	-211.1924743652344	1564.934326171875	-982.128601074219	-369.2077331542969	1427.661010742188	-888.8945312500002	-335.0416259765626	1395.762817382813	-868.0164794921877	-384.7627258300782	1364.388061523438	-860.6406250000002	-400.428924560547	1324.683471679688	-849.032165527344	-418.0948181152345	1299.51025390625	-931.3814086914065	-497.7110900878907	1074.595825195313	-831.7447509765627	-537.1424560546876	1120.249267578125	-784.483825683594	-550.5895996093751	1010.412902832031	-818.1800537109377	-170.637451171875	1039.545654296875	-1194.4365234375	-192.9380798339844	1046.851684570313	-971.1104736328127	-352.1281433105469	1133.538452148438	-1101.408081054688	-366.5372619628907	1106.947998046875	-1128.063354492188	-373.6411743164063	1110.474487304688	-1073.68896484375	-291.6558837890626	834.7047119140627	-1252.840087890625	-257.4497070312501	758.6932373046876	-1237.129760742188	-210.9051818847657	762.3760986328126	-1226.482666015625	-286.5425415039063	707.1644897460939	-1224.456909179688	-275.2007141113282	528.4871215820314	-1189.14404296875	-274.5581970214844	522.1679077148439	-1069.067016601563	-274.0317382812501	340.3276672363282	-1113.699829101563	-323.3965454101563	297.8508605957032	-1174.515502929688	-288.2331848144532	291.6243591308594	-1146.395629882813	-303.5870666503907	219.0622253417969	-1105.30615234375	-373.7919616699219	129.309799194336	-1139.132202148438	-340.6460266113282	141.3243103027344	-1056.543823242188	-443.5015258789064	113.7892532348633	-1097.390014648438	-240.6884002685547	64.04384613037111	-1052.255126953125	-229.7900543212891	54.59052658081056	-1095.173950195313	-272.8031921386719	38.78976058959962	-1153.817504882813	-320.0521850585938	794.5156860351565	-884.889587402344	-283.4112243652344	739.4221191406251	-877.7962646484377	-251.1691284179688	739.2375488281251	-883.5537109375002	-314.7312316894532	660.8165893554689	-882.7138671875002	-341.6989440917969	558.7687377929689	-886.1021118164065	-317.7637023925782	518.8873901367189	-991.9716796875002	-452.8045349121095	437.3518676757814	-900.7764282226565	-561.5837402343751	465.6312255859376	-919.023620605469	-539.1951293945314	426.0403747558595	-908.0163574218752	-560.6576538085939	376.6386718750001	-934.129577636719	-691.1000976562501	355.3716125488282	-946.7888793945315	-638.8107299804689	339.6992797851563	-1012.92626953125	-748.6317138671876	366.6435852050782	-1011.667541503906	-603.0845947265626	207.5962524414063	-979.653503417969	-611.7516479492189	206.9362945556641	-928.482604980469	-669.2189941406251	222.121078491211	-898.336364746094	nan	nan	nan	-4217.038085937501	853.1813964843752	-3944.765869140626	
1611	8.050000000000001	-97.40869140625003	1770.113525390625	-1161.930297851563	-271.4158935546876	1687.819091796875	-1229.59521484375	-251.4663543701172	1705.689331054688	-1078.5283203125	-301.1622314453126	1560.48974609375	-1155.614379882813	-337.8512573242188	1240.444213867188	-1113.05078125	-142.0421752929688	1492.944702148438	-1152.4248046875	-231.7646789550782	1548.285766601563	-1325.951538085938	-359.1396789550782	1393.354370117188	-1390.90087890625	-342.0797424316407	1347.122924804688	-1386.44091796875	-403.1906738281251	1339.15234375	-1393.802978515625	-428.6864013671876	1299.82861328125	-1390.562866210938	-440.6200256347657	1279.648193359375	-1306.79248046875	-531.0974731445314	1039.222045898438	-1365.544555664063	-569.6679077148439	1079.88720703125	-1417.615356445313	-583.3200073242189	977.567077636719	-1368.701538085938	-211.2234954833985	1565.432861328125	-982.4506835937502	-370.1151733398438	1429.095458984375	-889.985290527344	-336.1294860839844	1397.2509765625	-868.5181884765627	-386.0663452148439	1366.114013671875	-861.3782958984377	-401.7935180664064	1326.654296875	-849.8507080078127	-419.1607666015626	1300.999145507813	-932.1711425781252	-500.1897583007814	1076.807250976563	-831.6790771484377	-540.1190185546876	1122.992919921875	-785.1257324218752	-554.3282470703126	1013.267333984375	-819.1865234375002	-170.6128082275391	1039.66015625	-1194.48486328125	-192.4493713378907	1046.958740234375	-971.163513183594	-351.3469543457032	1133.2333984375	-1101.2705078125	-366.1206665039063	1106.943359375	-1127.871826171875	-373.4219665527344	1110.496337890625	-1073.56640625	-291.6426086425782	834.802185058594	-1252.842651367188	-257.4065856933594	758.8048095703126	-1237.189208984375	-210.8154296875001	762.5148315429689	-1226.542358398438	-286.5301818847657	707.3102416992189	-1224.5380859375	-275.2830505371094	528.5935668945314	-1189.2578125	-274.5676879882813	522.2886352539064	-1069.1533203125	-273.9711303710938	340.3214416503907	-1113.785400390625	-323.4329833984376	297.9688415527344	-1174.635375976563	-288.3214416503907	291.6025085449219	-1146.532348632813	-303.5060424804688	219.2381591796876	-1105.418334960938	-373.7527770996094	129.3016662597657	-1139.197387695313	-340.5406799316407	141.3853912353516	-1056.615844726563	-443.5104980468751	113.8610000610352	-1097.435668945313	-240.6807098388672	64.10730743408205	-1052.384643554688	-229.8121643066407	54.50835037231447	-1095.176391601563	-272.8532714843751	38.8228988647461	-1153.882202148438	-319.4862365722657	794.613464355469	-884.7378540039065	-282.5813903808594	739.5294189453126	-877.6741943359377	-250.4842681884766	739.2353515625001	-883.6021728515627	-314.0134277343751	660.8843994140626	-882.7217407226565	-340.9591369628907	558.8133544921876	-886.0786743164065	-317.1654052734376	518.9031372070314	-991.8946533203127	-452.0077514648439	437.3720092773439	-900.7587890625002	-561.0196533203126	465.7309875488282	-919.0771484375002	-538.4028320312501	426.1348876953126	-908.0908813476565	-559.9245605468751	376.6581420898438	-934.2424926757815	-690.4065551757814	355.3827209472657	-946.8372802734377	-638.0162353515626	339.2055358886719	-1012.967163085938	-747.8370361328126	366.6285400390626	-1011.700439453125	-601.9998779296876	207.4688262939454	-980.0005493164065	-611.0430297851564	206.9243927001954	-928.7459716796877	-668.5032348632814	221.9437103271485	-898.360534667969	nan	nan	nan	-4217.054199218751	853.129089355469	-3944.696044921876	
